<?xml version="1.0" encoding="UTF-8" standalone="no"?>
<!-- Generator: Adobe Illustrator 17.0.0, SVG Export Plug-In . SVG Version: 6.00 Build 0)  -->
<svg id="svg3031" xmlns:rdf="http://www.w3.org/1999/02/22-rdf-syntax-ns#" xmlns="http://www.w3.org/2000/svg" xml:space="preserve" height="100%" viewBox="0 0 55 55" width="100%" version="1.1" xmlns:cc="http://creativecommons.org/ns#" xmlns:dc="http://purl.org/dc/elements/1.1/"><metadata id="metadata4513"><rdf:RDF><cc:Work rdf:about=""><dc:format>image/svg+xml</dc:format><dc:type rdf:resource="http://purl.org/dc/dcmitype/StillImage"/><dc:title/></cc:Work></rdf:RDF></metadata>
<path id="path3861" d="m36.585,32.779a24.103,24.103,0,1,1,-48.207,0,24.103,24.103,0,1,1,48.207,0z" fill-rule="nonzero" transform="matrix(1.0579411,0,0,1.0579411,13.032028,-7.9610082)" stroke-miterlimit="4" stroke-width="0" fill="#FFF"/><g id="g3029" transform="matrix(0.91183003,0,0,0.91183003,-2.824394,-2.4151694)" stroke="#959595" stroke-dasharray="none" stroke-miterlimit="4" stroke-width="0.43867825" fill="#999"><g id="g3031" stroke="#959595" stroke-dasharray="none" stroke-miterlimit="4" stroke-width="0.43867825" fill="#999"><path id="path3033" d="m32,4.152h-1.136v10.939h2.272v-8.64c13.578,0.599,24.437,11.83,24.437,25.549,0,14.103-11.471,25.576-25.573,25.576s-25.573-11.473-25.573-25.576c0-5.772,1.874-11.217,5.424-15.749l-1.792-1.402c-3.865,4.937-5.907,10.868-5.907,17.151,0,15.356,12.494,27.848,27.848,27.848,15.356,0,27.848-12.491,27.848-27.848,0-15.354-12.492-27.848-27.848-27.848z" stroke="#959595" stroke-miterlimit="4" stroke-dasharray="none" stroke-width="0.43867825" fill="#999"/></g></g><g id="g3035" transform="matrix(0.91183003,0,0,0.91183003,-2.824394,-2.4151694)" stroke-miterlimit="4" stroke-width="0" fill="#999"><g id="g3037" stroke-width="0" stroke-miterlimit="4" fill="#999"><path id="path3039" d="m28.169,31.289c-0.139,0.463-0.209,0.876-0.209,1.269,0,2.461,2.007,4.465,4.468,4.465s4.465-2.004,4.465-4.465-2.004-4.468-4.465-4.468c-0.466,0-0.941,0.086-1.458,0.266l-0.228,0.08-10.992-7.727,8.493,10.334-0.074,0.246z" stroke-miterlimit="4" stroke-width="0" fill="#999"/></g></g></svg>
