<?xml version="1.0" encoding="UTF-8" standalone="no"?>
<!-- Generator: Adobe Illustrator 17.0.0, SVG Export Plug-In . SVG Version: 6.00 Build 0)  -->

<svg
   xmlns:dc="http://purl.org/dc/elements/1.1/"
   xmlns:cc="http://creativecommons.org/ns#"
   xmlns:rdf="http://www.w3.org/1999/02/22-rdf-syntax-ns#"
   xmlns:svg="http://www.w3.org/2000/svg"
   xmlns="http://www.w3.org/2000/svg"
   xmlns:sodipodi="http://sodipodi.sourceforge.net/DTD/sodipodi-0.dtd"
   xmlns:inkscape="http://www.inkscape.org/namespaces/inkscape"
   id="svg3031"
   xml:space="preserve"
   height="100%"
   viewBox="0 0 55 55"
   width="100%"
   version="1.1"
   inkscape:version="0.48.4 r9939"
   sodipodi:docname="current-time.svg"><defs
   id="defs5554" /><sodipodi:namedview
   pagecolor="#ffffff"
   bordercolor="#666666"
   borderopacity="1"
   objecttolerance="10"
   gridtolerance="10"
   guidetolerance="10"
   inkscape:pageopacity="0"
   inkscape:pageshadow="2"
   inkscape:window-width="1600"
   inkscape:window-height="837"
   id="namedview5552"
   showgrid="false"
   inkscape:zoom="4.2909091"
   inkscape:cx="16.998646"
   inkscape:cy="19.923594"
   inkscape:window-x="-8"
   inkscape:window-y="-8"
   inkscape:window-maximized="1"
   inkscape:current-layer="svg3031" /><metadata
   id="metadata4513"><rdf:RDF><cc:Work
       rdf:about=""><dc:format>image/svg+xml</dc:format><dc:type
         rdf:resource="http://purl.org/dc/dcmitype/StillImage" /><dc:title></dc:title></cc:Work></rdf:RDF></metadata>
<path
   sodipodi:type="arc"
   style="fill:#ffffff;fill-opacity:1;fill-rule:nonzero;stroke:#999999;stroke-width:0;stroke-linecap:round;stroke-linejoin:round;stroke-miterlimit:4;stroke-opacity:1;stroke-dasharray:none"
   id="path6339"
   sodipodi:cx="-30.529661"
   sodipodi:cy="40.317795"
   sodipodi:rx="25.169491"
   sodipodi:ry="25.169491"
   d="m -5.3601704,40.317795 a 25.169491,25.169491 0 1 1 -50.3389816,0 25.169491,25.169491 0 1 1 50.3389816,0 z"
   transform="matrix(0.96759259,0,0,0.96759259,55.292393,-11.860777)" /><path
   d="M 26.21822,1.6334759 H 24.111229 V 12.168431 h 4.213983 V 5.9528083 c 10.631879,1.0598163 18.962923,10.0587757 18.962923,20.9645627 0,11.617952 -9.451963,21.069916 -21.069915,21.069916 -11.617951,0 -21.0699151,-9.451964 -21.0699151,-21.069916 0,-5.827937 2.1786302,-10.983747 6.2999041,-14.909071 L 8.5405614,8.957378 c -4.9746067,4.740729 -7.60623899,10.950033 -7.60623899,17.959993 0,13.941963 11.34193459,25.283899 25.28389759,25.283899 13.941963,0 25.283899,-11.341936 25.283899,-25.283899 0,-13.941963 -11.341936,-25.2838951 -25.283899,-25.2838951 z"
   id="path5499"
   style="fill:#8c8c8c;fill-opacity:1" /><path
   d="m 22.077982,27.635856 -9.344507,-14.20323 14.203229,9.344508 c 1.976358,0.343439 3.495499,2.069065 3.495499,4.140237 0,2.317692 -1.896292,4.213984 -4.213983,4.213984 -2.071172,0 -3.796798,-1.519141 -4.140238,-3.495499 z"
   id="path6073"
   style="fill:#8c8c8c;fill-opacity:1" /></svg>