<?xml version="1.0" encoding="UTF-8" standalone="no"?>
<!-- Generator: Adobe Illustrator 17.0.0, SVG Export Plug-In . SVG Version: 6.00 Build 0)  -->
<svg id="svg3031" xmlns:rdf="http://www.w3.org/1999/02/22-rdf-syntax-ns#" xmlns="http://www.w3.org/2000/svg" xml:space="preserve" height="100%" viewBox="0 0 55 55" width="100%" version="1.1" xmlns:cc="http://creativecommons.org/ns#" xmlns:dc="http://purl.org/dc/elements/1.1/"><metadata id="metadata4513"><rdf:RDF><cc:Work rdf:about=""><dc:format>image/svg+xml</dc:format><dc:type rdf:resource="http://purl.org/dc/dcmitype/StillImage"/><dc:title/></cc:Work></rdf:RDF></metadata>
<path id="path3820" stroke-linejoin="round" d="m2.1423,27.315a19.116,19.116,0,1,1,-38.232,0,19.116,19.116,0,1,1,38.232,0z" transform="matrix(1.2753376,0,0,1.2753376,47.782292,-7.9328168)" stroke="#999" stroke-linecap="round" stroke-miterlimit="4" stroke-dasharray="none" stroke-width="1.96026527" fill="#FFF"/><g id="text2997" style="letter-spacing:0px;word-spacing:0px;" font-family="Sans" font-size="40px" line-height="125%" font-style="normal" font-weight="normal" fill="#8c8c8c"><path id="path3790" d="m17.808,32.627,0-12.474,7.8838,0,0,1.9259-5.6157,0,0,3.186,4.9856,0,0,1.9259-4.9856,0,0,5.436z"/><path id="path3792" d="m36.416,20.153,0,1.9616-3.8342,0,0,10.512-2.2857,0,0-10.512-3.8342,0,0-1.9616z"/></g></svg>
