<?xml version="1.0" encoding="UTF-8" standalone="no"?>
<!-- Generator: Adobe Illustrator 17.0.0, SVG Export Plug-In . SVG Version: 6.00 Build 0)  -->
<svg id="svg3031" xmlns:rdf="http://www.w3.org/1999/02/22-rdf-syntax-ns#" xmlns="http://www.w3.org/2000/svg" xml:space="preserve" height="100%" viewBox="0 0 55 55" width="100%" version="1.1" xmlns:cc="http://creativecommons.org/ns#" xmlns:dc="http://purl.org/dc/elements/1.1/"><metadata id="metadata3043"><rdf:RDF><cc:Work rdf:about=""><dc:format>image/svg+xml</dc:format><dc:type rdf:resource="http://purl.org/dc/dcmitype/StillImage"/><dc:title/></cc:Work></rdf:RDF></metadata>
<path id="path3820" stroke-linejoin="round" d="m50.495,27.032a24.256,24.256,0,0,1,-48.513,0,24.256,24.256,0,1,1,48.513,0z" stroke="#494949" stroke-linecap="round" stroke-miterlimit="4" stroke-dasharray="none" stroke-width="2.48738241" fill="#FFF"/><path id="path3932" fill="#4f4f4f" d="m27.376,15.939,9.8498,7.2701-3.7524,11.492h-12.196l-3.7523-11.492,9.85-7.27z"/><path id="path3944-7" fill="#4c4c4c" d="m26.254,3.7007c-2.3147,0-4.553,0.32047-6.6692,0.95274l-1.393,2.6383,7.988,3.4443,7.988-3.4443-1.392-2.7116c-2.072-0.6036-4.263-0.8794-6.522-0.8794zm-16.197,9.6003-3.1516,0.587c-2.4883,3.62-3.9146,8.005-4.0308,12.679l2.1253,2.2719,5.9363-6.7425-0.87945-8.7945zm32.32,0-0.95274,8.7945,5.9363,6.7425,2.2719-2.3452c-0.129-4.608-1.517-8.948-3.957-12.533h-0.0733l-3.2246-0.65958zm7.2555,13.192c0.0068,0.25996,0,0.47059,0,0.73287,0,0.69515-0.01619,1.3724-0.0733,2.0521,0.06239-0.69328,0.14658-1.4165,0.14658-2.1253,0-0.22054-0.06717-0.44047-0.07329-0.65958zm-0.73287,6.7425c-0.13935,0.54451-0.33764,1.0838-0.51301,1.6123,0.18598-0.52989,0.36498-1.0662,0.51301-1.6123zm-40.674,5.35-0.4397,2.931c2.783,3.5619,6.5665,6.2739,10.92,7.7685l2.4918-1.1726-4.5439-7.6219-8.428-1.9054zm35.984,0-8.428,1.9054-4.5438,7.6219,2.4918,1.2459c4.338-1.4695,8.1274-4.172,10.92-7.6952l-0.43973-3.0781z"/></svg>
