<?xml version="1.0" encoding="UTF-8" standalone="no"?>
<!-- Generator: Adobe Illustrator 17.0.0, SVG Export Plug-In . SVG Version: 6.00 Build 0)  -->
<svg id="svg3031" xmlns:rdf="http://www.w3.org/1999/02/22-rdf-syntax-ns#" xmlns="http://www.w3.org/2000/svg" xml:space="preserve" height="100%" viewBox="0 0 55 55" width="100%" version="1.1" xmlns:cc="http://creativecommons.org/ns#" xmlns:dc="http://purl.org/dc/elements/1.1/"><metadata id="metadata4513"><rdf:RDF><cc:Work rdf:about=""><dc:format>image/svg+xml</dc:format><dc:type rdf:resource="http://purl.org/dc/dcmitype/StillImage"/><dc:title/></cc:Work></rdf:RDF></metadata>
<rect id="rect6341" fill-rule="nonzero" height="29.831" width="43.085" stroke-miterlimit="4" y="17.479" x="4.661" stroke-width="0" fill="#FFF"/><path id="path6183" fill="#8c8c8c" d="m37.755,12.2c1.8034,0,3.264-1.4508,3.264-3.2542v-3.4094c0-1.805-1.4606-3.2607-3.264-3.2607-1.8017,0-3.2575,1.4557-3.2575,3.2607v3.4093c0,1.8034,1.4557,3.2542,3.2575,3.2542z"/><path id="path6185" fill="#8c8c8c" d="m49.34,7.9175h-6.5623v1.6597c0,2.7352-2.2244,4.9662-4.9662,4.9662-2.745,0-4.9629-2.2309-4.9629-4.9662v-1.6593h-13.247v1.6597c0,2.7352-2.2244,4.9662-4.9662,4.9662s-4.9629-2.2326-4.9629-4.9678v-1.6587l-6.6243-0.083219v41.456h43.034l3.3048-0.0098-0.0473-41.363zm-3.257,38.072h-39.723v-26.484h39.723v26.484z"/><path id="path6187" fill="#8c8c8c" d="m14.584,12.2c1.8034,0,3.2607-1.4508,3.2607-3.2542v-3.4094c0-1.805-1.4557-3.2607-3.2607-3.2607-1.8001,0-3.2575,1.4557-3.2575,3.2607v3.4093c0,1.8034,1.4574,3.2542,3.2575,3.2542z"/><rect id="rect6189" height="4.6039" width="5.2142" y="23.059" x="19.614" fill="#8c8c8c"/><rect id="rect6191" height="4.6039" width="5.2208" y="23.059" x="28.048" fill="#8c8c8c"/><rect id="rect6193" height="4.6039" width="5.2142" y="23.059" x="35.87" fill="#8c8c8c"/><rect id="rect6195" height="4.6006" width="5.2142" y="30.705" x="19.614" fill="#8c8c8c"/><rect id="rect6197" height="4.6006" width="5.2208" y="30.705" x="28.048" fill="#8c8c8c"/><rect id="rect6199" height="4.6006" width="5.2142" y="30.705" x="35.87" fill="#8c8c8c"/><rect id="rect6201" height="4.6006" width="5.2142" y="38.503" x="19.614" fill="#8c8c8c"/><rect id="rect6203" height="4.6006" width="5.211" y="30.705" x="11.326" fill="#8c8c8c"/><rect id="rect6205" height="4.6006" width="5.211" y="38.503" x="11.326" fill="#8c8c8c"/><rect id="rect6207" height="4.6006" width="5.2208" y="38.503" x="28.048" fill="#8c8c8c"/><rect id="rect6209" height="4.6006" width="5.2142" y="38.503" x="35.87" fill="#8c8c8c"/></svg>
