<?xml version="1.0" encoding="UTF-8" standalone="no"?>
<!-- Generator: Adobe Illustrator 17.0.0, SVG Export Plug-In . SVG Version: 6.00 Build 0)  -->
<svg id="svg3031" xmlns:rdf="http://www.w3.org/1999/02/22-rdf-syntax-ns#" xmlns="http://www.w3.org/2000/svg" xml:space="preserve" height="100%" viewBox="0 0 55 55" width="100%" version="1.1" xmlns:cc="http://creativecommons.org/ns#" xmlns:dc="http://purl.org/dc/elements/1.1/"><metadata id="metadata3043"><rdf:RDF><cc:Work rdf:about=""><dc:format>image/svg+xml</dc:format><dc:type rdf:resource="http://purl.org/dc/dcmitype/StillImage"/><dc:title/></cc:Work></rdf:RDF></metadata>
<path id="path3033" stroke-linejoin="miter" d="m5.4793,3.7723,38.285,0c0.82292,0,1.4854,0.70518,1.4854,1.5811v43.312c0,0.87594-0.66249,1.5811-1.4854,1.5811h-38.285c-0.82292,0-1.4854-0.70518-1.4854-1.5811v-43.312c0-0.87594,0.66249-1.5811,1.4854-1.5811z" stroke="#999" stroke-linecap="butt" stroke-miterlimit="4" stroke-dasharray="none" stroke-width="2.5" fill="#FFF"/><g id="text3045" stroke-width="0" font-size="27.95492363000000000px" font-family="Sans" style="word-spacing:0px;letter-spacing:0px;" transform="matrix(0.98961155,0,0,0.88928804,2.1124017,2.9639583)" stroke="#999" stroke-miterlimit="4" line-height="125%" font-style="normal" font-weight="normal" fill="#999"><path id="path3818" d="m23.526,23.429,3.1028-4.7809,3.5498,0-4.8082,6.9051c1.0067,1.3047,1.9713,2.6233,2.8938,3.9559,0.92249,1.3326,1.6818,2.5858,2.2778,3.7597h-3.6616c-0.16779-0.35433-0.3869-0.7597-0.65733-1.2161-0.27045-0.45642-0.55937-0.9316-0.86677-1.4256-0.30742-0.49395-0.62876-0.98321-0.96402-1.4678-0.33528-0.48457-0.6616-0.94127-0.97895-1.3701-0.65179,0.8389-1.2899,1.7662-1.9144,2.782-0.62449,1.0158-1.1418,1.915-1.5518,2.6976h-3.4662c0.27982-0.55908,0.61538-1.1554,1.0067-1.789,0.39129-0.63358,0.8106-1.2812,1.2579-1.943,0.44731-0.66173,0.90857-1.3233,1.3838-1.9848,0.47518-0.66144,0.94568-1.2905,1.4115-1.8871l-4.8363-7.0169h3.7179z" stroke="#999" stroke-miterlimit="4" stroke-width="0" fill="#999"/></g></svg>
