<?xml version="1.0" encoding="UTF-8" standalone="no"?>
<!-- Generator: Adobe Illustrator 17.0.0, SVG Export Plug-In . SVG Version: 6.00 Build 0)  -->
<svg id="svg5037" xmlns:rdf="http://www.w3.org/1999/02/22-rdf-syntax-ns#" xmlns="http://www.w3.org/2000/svg" xml:space="preserve" height="100%" viewBox="0 0 55 55" width="100%" version="1.1" xmlns:cc="http://creativecommons.org/ns#" xmlns:dc="http://purl.org/dc/elements/1.1/"><metadata id="metadata5049"><rdf:RDF><cc:Work rdf:about=""><dc:format>image/svg+xml</dc:format><dc:type rdf:resource="http://purl.org/dc/dcmitype/StillImage"/><dc:title/></cc:Work></rdf:RDF></metadata>
<path id="path5039" stroke-linejoin="miter" d="m5.4793,3.7723,38.285,0c0.82292,0,1.4854,0.70518,1.4854,1.5811v43.312c0,0.87594-0.66249,1.5811-1.4854,1.5811h-38.285c-0.82292,0-1.4854-0.70518-1.4854-1.5811v-43.312c0-0.87594,0.66249-1.5811,1.4854-1.5811z" stroke="#999" stroke-linecap="butt" stroke-miterlimit="4" stroke-dasharray="none" stroke-width="2.50000000000000000" fill="#FFF"/><g id="g5041" style="letter-spacing:0px;word-spacing:0px;" font-family="Sans" transform="matrix(0.91236065,0,0,0.80334719,3.7381096,3.5977108)" font-size="38.55827713px" font-style="normal" font-weight="normal" line-height="125%" fill="#949494"><path id="path5043" d="m25.703,21.527c-0.000009,2.133-0.07708,4.0863-0.23122,5.86-0.15416,1.7737-0.34694,3.5603-0.57835,5.3599h-3.316c-0.257-1.8-0.463-3.593-0.617-5.379-0.155-1.786-0.232-3.733-0.232-5.841v-7.172h4.9739zm0.57894,17.003c-0.000009,0.89979-0.29556,1.6325-0.88665,2.1981-0.59111,0.5656-1.3236,0.8484-2.1975,0.8484-0.8488,0-1.5752-0.2828-2.1793-0.8484-0.60404-0.5656-0.90607-1.2983-0.90606-2.1981-0.000003-0.89978,0.30202-1.6388,0.90606-2.2169,0.60404-0.57815,1.3305-0.86723,2.1793-0.86723,0.87389,0.000005,1.6064,0.28908,2.1975,0.86723,0.59109,0.57816,0.88664,1.3171,0.88665,2.2169z"/></g></svg>
